<svg xmlns="http://www.w3.org/2000/svg" xmlns:xlink="http://www.w3.org/1999/xlink" fill="none" version="1.1" width="27" height="24" viewBox="0 0 27 24"><defs><clipPath id="master_svg0_1_0042"><rect x="0" y="0" width="27" height="24" rx="0"/></clipPath></defs><g clip-path="url(#master_svg0_1_0042)"><g transform="matrix(1,0,0,-1,0,45.6988525390625)"><g><path d="M18,22.87073306953125L9,25.448856269531248L18,22.87073306953125L9,25.448856269531248L9,43.49572626953125L18,40.917626269531254L18,22.87073306953125ZM19.5,22.91760816953125L19.5,41.05822626953125L19.5,22.91760816953125L19.5,41.05822626953125L25.4531,43.40202626953125Q26.0625,43.63632626953125,26.4844,43.30822626953125Q26.9531,42.980126269531254,27,42.37072626953125L27,26.667606269531248Q26.9531,25.96448626953125,26.2969,25.636356269531248L19.5,22.91760816953125ZM0.703125,40.730126269531254L7.5,43.44882626953125L0.703125,40.730126269531254L7.5,43.44882626953125L7.5,25.30823626953125L1.54688,22.91760816953125Q0.9375,22.73010826953125,0.515625,23.05823326953125Q0.046875,23.38635826953125,0,23.99573626953125L0,39.69882626953125Q0.046875,40.40202626953125,0.703125,40.730126269531254Z" fill="#000000" fill-opacity="1" style="mix-blend-mode:passthrough"/></g></g></g></svg>