<svg xmlns="http://www.w3.org/2000/svg" xmlns:xlink="http://www.w3.org/1999/xlink" fill="none" version="1.1" width="14" height="16" viewBox="0 0 14 16"><defs><clipPath id="master_svg0_2_4010"><rect x="0" y="0" width="14" height="16" rx="0"/></clipPath></defs><g clip-path="url(#master_svg0_2_4010)"><g transform="matrix(1,0,0,-1,0,30.6875)"><g><path d="M2,29.34375Q1.15625,29.31255,0.59375,28.74995Q0.03125,28.18755,0,27.34375L0,17.34375Q0.03125,16.5,0.59375,15.9375Q1.15625,15.375,2,15.34375L12,15.34375Q12.8438,15.375,13.4062,15.9375Q13.9688,16.5,14,17.34375L14,24.9375Q14,25.74995,13.4062,26.34375L11,28.74995Q10.4062,29.34375,9.59375,29.34375L2,29.34375ZM2,26.34375Q2,26.78125,2.28125,27.06255Q2.5625,27.34375,3,27.34375L9,27.34375Q9.4375,27.34375,9.71875,27.06255Q10,26.78125,10,26.34375L10,24.34375Q10,23.90625,9.71875,23.625Q9.4375,23.34375,9,23.34375L3,23.34375Q2.5625,23.34375,2.28125,23.625Q2,23.90625,2,24.34375L2,26.34375ZM7,21.34375Q8.125,21.3125,8.71875,20.34375Q9.28125,19.34375,8.71875,18.34375Q8.125,17.375,7,17.34375Q5.875,17.375,5.28125,18.34375Q4.71875,19.34375,5.28125,20.34375Q5.875,21.3125,7,21.34375Z" fill="#374151" fill-opacity="1" style="mix-blend-mode:passthrough"/></g></g></g></svg>